<svg width="9387" height="1596" viewBox="0 0 9387 1596" fill="none" xmlns="http://www.w3.org/2000/svg">
<path d="M1990.57 1032.42C1990.57 1105.87 1931.02 1165.42 1857.57 1165.42H1325.57C1252.11 1165.42 1192.57 1105.87 1192.57 1032.42L1990.57 1032.42Z" fill="url(#paint0_linear_70_174)"/>
<path d="M1143 425.278C1143 485.876 1093.88 535 1033.28 535C962.984 535 906 478.016 906 407.722V298L1143 298V425.278Z" fill="url(#paint1_linear_70_174)"/>
<path d="M2278 426.278C2278 486.876 2228.88 536 2168.28 536C2097.98 536 2041 479.016 2041 408.722V299L2278 299V426.278Z" fill="url(#paint2_linear_70_174)"/>
<path d="M4118.85 11.8299H4390.41V1575H4114.29C3890.65 1004.5 3762.86 672.849 3730.91 580.048C3698.97 485.725 3681.47 434 3678.43 424.872C3678.43 427.915 3682.23 456.059 3689.84 509.306C3709.62 647.747 3719.5 818.897 3719.5 1022.76V1575H3450.23V11.8299H3730.91C3924.12 500.178 4035.94 787.71 4066.37 874.426C4096.79 961.142 4118.85 1028.08 4132.55 1075.24C4147.76 1120.88 4156.89 1147.51 4159.93 1155.11C4159.93 1149.03 4156.13 1120.12 4148.52 1068.4C4128.74 916.263 4118.85 743.591 4118.85 550.382V11.8299Z" fill="url(#paint3_linear_70_174)"/>
<path d="M4565.06 358.694C4565.06 244.594 4603.09 156.357 4679.16 93.9819C4755.22 31.6073 4864 0.419922 5005.48 0.419922C5148.49 0.419922 5259.54 14.8726 5338.65 43.778V306.208C5250.42 271.217 5146.21 253.722 5026.02 253.722C4905.84 253.722 4845.74 299.362 4845.74 390.642V452.256C4845.74 497.896 4854.11 533.647 4870.84 559.51C4887.58 583.851 4920.29 608.953 4968.97 634.816L5231.4 783.146C5354.63 850.085 5416.24 952.014 5416.24 1088.93V1223.57C5416.24 1339.19 5374.41 1428.95 5290.73 1492.85C5207.06 1555.22 5087.63 1586.41 4932.46 1586.41C4777.28 1586.41 4660.9 1569.68 4583.31 1536.21V1271.49C4680.68 1312.57 4790.97 1333.11 4914.2 1333.11C5064.81 1333.11 5140.12 1285.95 5140.12 1191.62V1132.29C5140.12 1092.74 5131.75 1062.31 5115.02 1041.01C5099.8 1018.19 5070.9 995.372 5028.3 972.552L4777.28 835.632C4635.8 758.044 4565.06 646.226 4565.06 500.178V358.694Z" fill="url(#paint4_linear_70_174)"/>
<path d="M5571.24 363.258C5571.24 249.158 5610.03 160.16 5687.62 96.264C5766.73 32.368 5885.4 0.419922 6043.61 0.419922C6147.06 0.419922 6239.87 11.83 6322.02 34.65V285.67C6230.74 259.807 6143.26 246.876 6059.59 246.876C5977.44 246.876 5921.15 259.047 5890.72 283.388C5861.81 306.208 5847.36 340.438 5847.36 386.078V1200.75C5847.36 1293.55 5913.54 1339.95 6045.9 1339.95C6156.95 1339.95 6251.28 1327.78 6328.86 1303.44V1552.18C6246.71 1575 6150.11 1586.41 6039.05 1586.41C5727.18 1586.41 5571.24 1466.22 5571.24 1225.85V363.258Z" fill="url(#paint5_linear_70_174)"/>
<path d="M7180.67 1575L7105.37 1184.78H6753.94L6680.92 1575H6418.49L6742.53 11.8299H7123.62L7445.39 1575H7180.67ZM6797.3 952.014H7059.73L6927.37 258.286L6797.3 952.014Z" fill="url(#paint6_linear_70_174)"/>
<path d="M8165.87 388.36C8165.87 297.08 8117.95 251.44 8022.11 251.44H7866.93V853.888H8022.11C8117.95 853.888 8165.87 807.487 8165.87 714.686V388.36ZM7590.81 11.8299H8051.77C8175 11.8299 8270.09 42.2566 8337.02 103.11C8405.48 163.963 8439.71 249.919 8439.71 360.976V742.07C8439.71 853.127 8405.48 939.083 8337.02 999.936C8270.09 1060.79 8175 1091.22 8051.77 1091.22H7866.93V1575H7590.81V11.8299Z" fill="url(#paint7_linear_70_174)"/>
<path d="M8635.98 11.8299H9386.76V251.44H8909.82V664.482H9322.87V904.092H8909.82V1335.39H9386.76V1575H8635.98V11.8299Z" fill="url(#paint8_linear_70_174)"/>
<path d="M743.094 351.203C449.127 351.203 302.144 504.375 302.144 810.719C302.144 1113.97 449.128 1265.59 743.094 1265.59H2469.76C2766.82 1265.59 2915.35 1113.97 2915.35 810.719C2915.35 504.375 2766.82 351.203 2469.76 351.203L743.094 351.203ZM738.453 1595.15C518.751 1595.15 340.824 1528.62 204.671 1395.56C68.518 1262.5 0.441417 1067.55 0.441406 810.719C0.441395 550.791 68.5179 354.297 204.671 221.239C340.824 88.1799 518.751 21.6505 738.453 21.6505L2479.05 21.6504C2698.75 21.6504 2876.67 88.1798 3012.83 221.238C3145.89 354.297 3212.42 550.791 3212.42 810.719C3212.42 1070.65 3145.89 1267.14 3012.83 1400.2C2876.67 1530.16 2698.75 1595.15 2479.05 1595.15L738.453 1595.15Z" fill="url(#paint9_linear_70_174)"/>
<defs>
<linearGradient id="paint0_linear_70_174" x1="4.93166e-05" y1="798" x2="9387" y2="798" gradientUnits="userSpaceOnUse">
<stop stop-color="#ADC2DF"/>
<stop offset="1" stop-color="#08ADB6"/>
</linearGradient>
<linearGradient id="paint1_linear_70_174" x1="4.93166e-05" y1="798" x2="9387" y2="798" gradientUnits="userSpaceOnUse">
<stop stop-color="#ADC2DF"/>
<stop offset="1" stop-color="#08ADB6"/>
</linearGradient>
<linearGradient id="paint2_linear_70_174" x1="4.93166e-05" y1="798" x2="9387" y2="798" gradientUnits="userSpaceOnUse">
<stop stop-color="#ADC2DF"/>
<stop offset="1" stop-color="#08ADB6"/>
</linearGradient>
<linearGradient id="paint3_linear_70_174" x1="4.93166e-05" y1="798" x2="9387" y2="798" gradientUnits="userSpaceOnUse">
<stop stop-color="#ADC2DF"/>
<stop offset="1" stop-color="#08ADB6"/>
</linearGradient>
<linearGradient id="paint4_linear_70_174" x1="4.93166e-05" y1="798" x2="9387" y2="798" gradientUnits="userSpaceOnUse">
<stop stop-color="#ADC2DF"/>
<stop offset="1" stop-color="#08ADB6"/>
</linearGradient>
<linearGradient id="paint5_linear_70_174" x1="4.93166e-05" y1="798" x2="9387" y2="798" gradientUnits="userSpaceOnUse">
<stop stop-color="#ADC2DF"/>
<stop offset="1" stop-color="#08ADB6"/>
</linearGradient>
<linearGradient id="paint6_linear_70_174" x1="4.93166e-05" y1="798" x2="9387" y2="798" gradientUnits="userSpaceOnUse">
<stop stop-color="#ADC2DF"/>
<stop offset="1" stop-color="#08ADB6"/>
</linearGradient>
<linearGradient id="paint7_linear_70_174" x1="4.93166e-05" y1="798" x2="9387" y2="798" gradientUnits="userSpaceOnUse">
<stop stop-color="#ADC2DF"/>
<stop offset="1" stop-color="#08ADB6"/>
</linearGradient>
<linearGradient id="paint8_linear_70_174" x1="4.93166e-05" y1="798" x2="9387" y2="798" gradientUnits="userSpaceOnUse">
<stop stop-color="#ADC2DF"/>
<stop offset="1" stop-color="#08ADB6"/>
</linearGradient>
<linearGradient id="paint9_linear_70_174" x1="4.93166e-05" y1="798" x2="9387" y2="798" gradientUnits="userSpaceOnUse">
<stop stop-color="#ADC2DF"/>
<stop offset="1" stop-color="#08ADB6"/>
</linearGradient>
</defs>
</svg>
