<svg width="1471" height="331" viewBox="0 0 1471 331" fill="none" xmlns="http://www.w3.org/2000/svg">
<g filter="url(#filter0_i_37_62)">
<path d="M0 165.5C0 74.0969 74.0969 0 165.5 0H1305.5C1396.9 0 1471 74.0969 1471 165.5C1471 256.903 1396.9 331 1305.5 331H165.5C74.0968 331 0 256.903 0 165.5Z" fill="#00ADB5"/>
<path d="M45 165.5C45 93.9791 102.979 36 174.5 36H378.5C450.021 36 508 93.9791 508 165.5C508 237.021 450.021 295 378.5 295H174.5C102.979 295 45 237.021 45 165.5Z" fill="#222831"/>
<path d="M471 165.5C471 218.795 427.795 262 374.5 262C321.205 262 278 218.795 278 165.5C278 112.205 321.205 69 374.5 69C427.795 69 471 112.205 471 165.5Z" fill="#00ADB5"/>
<path d="M622.384 261.897C609.737 261.897 598.355 259.729 588.238 255.393C578.121 250.876 570.171 244.553 564.39 236.423C558.609 228.293 555.718 218.808 555.718 207.968H588.78C589.503 216.098 592.664 222.783 598.265 228.022C604.046 233.261 612.086 235.881 622.384 235.881C633.043 235.881 641.354 233.352 647.316 228.293C653.278 223.054 656.259 216.369 656.259 208.239C656.259 201.916 654.362 196.767 650.568 192.792C646.955 188.817 642.348 185.746 636.747 183.578C631.327 181.41 623.739 179.061 613.983 176.532C601.698 173.28 591.671 170.028 583.902 166.776C576.314 163.343 569.81 158.104 564.39 151.058C558.97 144.012 556.26 134.617 556.26 122.874C556.26 112.034 558.97 102.549 564.39 94.419C569.81 86.289 577.398 80.056 587.154 75.72C596.91 71.384 608.202 69.216 621.029 69.216C639.276 69.216 654.181 73.823 665.744 83.037C677.487 92.0703 683.991 104.536 685.256 120.435H651.11C650.568 113.57 647.316 107.698 641.354 102.82C635.392 97.942 627.533 95.503 617.777 95.503C608.924 95.503 601.698 97.7613 596.097 102.278C590.496 106.795 587.696 113.299 587.696 121.79C587.696 127.571 589.412 132.359 592.845 136.153C596.458 139.766 600.975 142.657 606.395 144.825C611.815 146.993 619.222 149.342 628.617 151.871C641.083 155.304 651.2 158.736 658.969 162.169C666.918 165.602 673.603 170.931 679.023 178.158C684.624 185.204 687.424 194.689 687.424 206.613C687.424 216.188 684.804 225.222 679.565 233.713C674.506 242.204 667.009 249.07 657.072 254.309C647.316 259.368 635.753 261.897 622.384 261.897Z" fill="#222831"/>
<path d="M704.095 165.421C704.095 146.993 708.34 130.462 716.832 115.828C725.504 101.194 737.157 89.812 751.791 81.682C766.605 73.3713 782.775 69.216 800.3 69.216C820.354 69.216 838.149 74.1843 853.687 84.121C869.405 93.877 880.787 107.788 887.833 125.855H850.706C845.828 115.918 839.053 108.511 830.381 103.633C821.709 98.755 811.682 96.316 800.3 96.316C787.834 96.316 776.723 99.1163 766.967 104.717C757.211 110.318 749.532 118.357 743.932 128.836C738.512 139.315 735.802 151.51 735.802 165.421C735.802 179.332 738.512 191.527 743.932 202.006C749.532 212.485 757.211 220.615 766.967 226.396C776.723 231.997 787.834 234.797 800.3 234.797C811.682 234.797 821.709 232.358 830.381 227.48C839.053 222.602 845.828 215.195 850.706 205.258H887.833C880.787 223.325 869.405 237.236 853.687 246.992C838.149 256.748 820.354 261.626 800.3 261.626C782.594 261.626 766.425 257.561 751.791 249.431C737.157 241.12 725.504 229.648 716.832 215.014C708.34 200.38 704.095 183.849 704.095 165.421Z" fill="#222831"/>
<path d="M1028.06 221.518H949.197L935.647 260H903.398L970.877 71.384H1006.65L1074.13 260H1041.61L1028.06 221.518ZM1019.39 196.315L988.763 108.782L957.869 196.315H1019.39Z" fill="#222831"/>
<path d="M1225.69 127.752C1225.69 137.327 1223.43 146.361 1218.91 154.852C1214.4 163.343 1207.17 170.299 1197.23 175.719C1187.3 180.958 1174.56 183.578 1159.02 183.578H1124.88V260H1093.98V71.655H1159.02C1173.48 71.655 1185.67 74.1843 1195.61 79.243C1205.73 84.121 1213.22 90.8056 1218.1 99.297C1223.16 107.788 1225.69 117.273 1225.69 127.752ZM1159.02 158.375C1170.77 158.375 1179.53 155.755 1185.31 150.516C1191.09 145.096 1193.98 137.508 1193.98 127.752C1193.98 107.156 1182.33 96.858 1159.02 96.858H1124.88V158.375H1159.02Z" fill="#222831"/>
<path d="M1276.56 96.587V151.871H1341.6V177.074H1276.56V234.797H1349.73V260H1245.67V71.384H1349.73V96.587H1276.56Z" fill="#222831"/>
</g>
<defs>
<filter id="filter0_i_37_62" x="0" y="0" width="1471" height="335" filterUnits="userSpaceOnUse" color-interpolation-filters="sRGB">
<feFlood flood-opacity="0" result="BackgroundImageFix"/>
<feBlend mode="normal" in="SourceGraphic" in2="BackgroundImageFix" result="shape"/>
<feColorMatrix in="SourceAlpha" type="matrix" values="0 0 0 0 0 0 0 0 0 0 0 0 0 0 0 0 0 0 127 0" result="hardAlpha"/>
<feOffset dy="4"/>
<feGaussianBlur stdDeviation="17"/>
<feComposite in2="hardAlpha" operator="arithmetic" k2="-1" k3="1"/>
<feColorMatrix type="matrix" values="0 0 0 0 0 0 0 0 0 0 0 0 0 0 0 0 0 0 0.25 0"/>
<feBlend mode="normal" in2="shape" result="effect1_innerShadow_37_62"/>
</filter>
</defs>
</svg>
